<?xml version="1.0" encoding="UTF-8" standalone="no"?>
<!-- Created with Inkscape (http://www.inkscape.org/) -->

<svg
   width="400mm"
   height="400mm"
   viewBox="0 0 400 400"
   version="1.1"
   id="svg1"
   inkscape:version="1.3.2 (091e20e, 2023-11-25, custom)"
   sodipodi:docname="card-participant.svg"
   xmlns:inkscape="http://www.inkscape.org/namespaces/inkscape"
   xmlns:sodipodi="http://sodipodi.sourceforge.net/DTD/sodipodi-0.dtd"
   xmlns="http://www.w3.org/2000/svg"
   xmlns:svg="http://www.w3.org/2000/svg">
  <sodipodi:namedview
     id="namedview1"
     pagecolor="#ffffff"
     bordercolor="#666666"
     borderopacity="1.0"
     inkscape:showpageshadow="2"
     inkscape:pageopacity="0.0"
     inkscape:pagecheckerboard="0"
     inkscape:deskcolor="#d1d1d1"
     inkscape:document-units="mm"
     inkscape:zoom="0.09598941"
     inkscape:cx="-932.39452"
     inkscape:cy="2041.8919"
     inkscape:window-width="1920"
     inkscape:window-height="1051"
     inkscape:window-x="-9"
     inkscape:window-y="-9"
     inkscape:window-maximized="1"
     inkscape:current-layer="layer1" />
  <defs
     id="defs1">
    <clipPath
       clipPathUnits="userSpaceOnUse"
       id="clipPath30">
      <rect
         style="fill:#ffffff;fill-opacity:1;stroke-width:0.3;stroke-dasharray:0.899999, 0.3"
         id="rect30"
         width="400"
         height="400"
         x="0"
         y="0" />
    </clipPath>
  </defs>
  <g
     inkscape:label="Layer 1"
     inkscape:groupmode="layer"
     id="layer1">
    <g
       id="g30"
       clip-path="url(#clipPath30)">
      <path
         d="m 1345.5097,-246.72533 58.2286,-6.09287 a 775.30098,775.30098 0 0 0 -1.1616,-12.78763 775.30098,775.30098 0 0 0 -7.0465,-46.29836 775.30098,775.30098 0 0 0 -9.8311,-45.78709 775.30098,775.30098 0 0 0 -12.5748,-45.11609 775.30098,775.30098 0 0 0 -15.275,-44.2692 775.30098,775.30098 0 0 0 -14.9814,-36.16837 l -53.734,23.54589 a 716.78801,716.78801 0 0 1 10.2475,23.67914 716.78801,716.78801 0 0 1 15.2534,42.3678 716.78801,716.78801 0 0 1 12.5645,43.2413 716.78801,716.78801 0 0 1 9.821,43.94449 716.78801,716.78801 0 0 1 7.0464,44.47691 716.78801,716.78801 0 0 1 1.443,15.26408 z"
         style="fill:#003a53;fill-opacity:1;stroke:none;stroke-width:10.3063;stroke-linecap:round"
         id="path197-9" />
      <path
         d="m 688.27169,539.79345 4.52247,58.11654 a 775.30098,775.30098 0 0 0 74.76511,-6.54026 775.30098,775.30098 0 0 0 130.53893,-34.9754 775.30098,775.30098 0 0 0 122.4809,-57.11538 775.30098,775.30098 0 0 0 110.7055,-77.51372 775.30098,775.30098 0 0 0 93.8381,-93.84298 l -44.6956,-37.73964 a 716.78801,716.78801 0 0 1 -86.7545,86.75414 716.78801,716.78801 0 0 1 -102.34965,71.66586 716.78801,716.78801 0 0 1 -113.23963,52.80676 716.78801,716.78801 0 0 1 -120.6861,32.33905 716.78801,716.78801 0 0 1 -69.12553,6.04503 z"
         style="fill:#c362ff;fill-opacity:1;stroke:none;stroke-width:10.3063;stroke-linecap:round"
         id="path195-38" />
      <path
         d="M -1.6025438,156.70921 -53.396979,183.552 a 775.30098,775.30098 0 0 0 14.89669,31.94488 775.30098,775.30098 0 0 0 77.51393,110.70494 775.30098,775.30098 0 0 0 95.563309,95.56341 775.30098,775.30098 0 0 0 78.59496,55.03296 l 31.6785,-48.9774 A 716.78801,716.78801 0 0 1 172.18367,376.93675 716.78801,716.78801 0 0 1 83.836781,288.59022 716.78801,716.78801 0 0 1 12.170835,186.24158 716.78801,716.78801 0 0 1 -1.6025438,156.70921 Z"
         style="fill:#ffffff;fill-opacity:1;stroke:none;stroke-width:10.3063;stroke-linecap:round"
         id="path193-19" />
      <path
         d="m -82.034075,-151.28984 a 716.78801,716.78801 0 0 1 -1.82728,-20.86168 716.78801,716.78801 0 0 1 10.89164,-124.46714 716.78801,716.78801 0 0 1 32.339206,-120.69127 716.78801,716.78801 0 0 1 52.801344,-113.23458 716.78801,716.78801 0 0 1 71.665946,-102.34864 716.78801,716.78801 0 0 1 88.346889,-88.35202 716.78801,716.78801 0 0 1 102.34798,-71.66594 716.78801,716.78801 0 0 1 113.24077,-52.80135 716.78801,716.78801 0 0 1 2.897,-0.77764 l -19.78078,-55.04875 a 775.30098,775.30098 0 0 0 -3.13114,0.84115 775.30098,775.30098 0 0 0 -122.48131,57.11533 775.30098,775.30098 0 0 0 -110.69924,77.51377 775.30098,775.30098 0 0 0 -95.563309,95.56332 775.30098,775.30098 0 0 0 -77.51393,110.70503 775.30098,775.30098 0 0 0 -57.115498,122.48045 775.30098,775.30098 0 0 0 -34.980703,130.53881 775.30098,775.30098 0 0 0 -11.77588,134.6291 775.30098,775.30098 0 0 0 1.97663,22.56608 z"
         style="fill:#8067ff;fill-opacity:1;stroke:none;stroke-width:10.3063;stroke-linecap:round"
         id="path192-6" />
      <path
         d="m 731.43362,-941.03069 -7.42475,57.9409 a 716.78801,716.78801 0 0 1 43.23089,6.84383 716.78801,716.78801 0 0 1 43.94411,9.82634 716.78801,716.78801 0 0 1 43.24126,12.56397 716.78801,716.78801 0 0 1 42.36834,15.25335 716.78801,716.78801 0 0 1 41.32916,17.87928 716.78801,716.78801 0 0 1 40.12065,20.4462 716.78801,716.78801 0 0 1 38.76272,22.92286 716.78801,716.78801 0 0 1 37.2387,25.30879 716.78801,716.78801 0 0 1 22.7203,17.62366 l 36.4134,-46.11205 a 775.30098,775.30098 0 0 0 -2.3056,-1.92268 775.30098,775.30098 0 0 0 -37.7242,-27.75352 775.30098,775.30098 0 0 0 -39.3269,-25.4313 775.30098,775.30098 0 0 0 -40.79202,-23.00806 775.30098,775.30098 0 0 0 -42.10656,-20.49954 775.30098,775.30098 0 0 0 -43.26799,-17.9218 775.30098,775.30098 0 0 0 -44.27482,-15.28 775.30098,775.30098 0 0 0 -45.10982,-12.57467 775.30098,775.30098 0 0 0 -45.79307,-9.82622 775.30098,775.30098 0 0 0 -41.2438,-6.27934 z"
         style="fill:#cd5aff;fill-opacity:1;stroke:none;stroke-width:10.3063;stroke-linecap:round"
         id="path179-5" />
      <path
         d="m 1175.1329,-460.80677 65.0194,-33.60139 a 702.26405,702.26405 0 0 0 -8.1863,-16.063 702.26405,702.26405 0 0 0 -22.4595,-37.97395 702.26405,702.26405 0 0 0 -24.7981,-36.48792 702.26405,702.26405 0 0 0 -27.0397,-34.85827 702.26405,702.26405 0 0 0 -29.175,-33.09545 702.26405,702.26405 0 0 0 -31.1942,-31.194 702.26405,702.26405 0 0 0 -33.0906,-29.17543 702.26405,702.26405 0 0 0 -34.8632,-27.03984 702.26405,702.26405 0 0 0 -36.4881,-24.79761 702.26405,702.26405 0 0 0 -16.75093,-9.90625 l -37.4624,62.80883 a 629.01778,629.01778 0 0 1 27.386,17.03232 629.01778,629.01778 0 0 1 33.45734,23.97196 629.01778,629.01778 0 0 1 31.81839,26.11312 629.01778,629.01778 0 0 1 30.043,28.13699 629.01778,629.01778 0 0 1 28.1371,30.04356 629.01778,629.01778 0 0 1 26.1132,31.81728 629.01778,629.01778 0 0 1 23.9777,33.46276 629.01778,629.01778 0 0 1 21.735,34.95412 629.01778,629.01778 0 0 1 13.8209,25.85217 z"
         style="fill:#003a53;fill-opacity:1;stroke:none;stroke-width:10.0975;stroke-linecap:round"
         id="path263-73" />
      <path
         d="m 1145.7546,189.71413 58.7883,41.48368 a 702.26405,702.26405 0 0 0 36.5627,-52.21538 702.26405,702.26405 0 0 0 51.7356,-110.944672 702.26405,702.26405 0 0 0 31.6838,-118.24117 702.26405,702.26405 0 0 0 10.6681,-121.948108 702.26405,702.26405 0 0 0 -0.098,-2.05577 l -73.2418,0.2132 a 629.01778,629.01778 0 0 1 0.098,1.84273 629.01778,629.01778 0 0 1 -12.0842,122.715088 629.01778,629.01778 0 0 1 -35.796,118.00153 629.01778,629.01778 0 0 1 -58.1276,108.744962 629.01778,629.01778 0 0 1 -10.1827,12.40415 z"
         style="fill:#003a53;fill-opacity:1;stroke:none;stroke-width:10.0975;stroke-linecap:round"
         id="path261-1" />
      <path
         d="m 606.59315,443.36179 -3.07854,73.26903 a 702.26405,702.26405 0 0 0 29.41519,2.57244 702.26405,702.26405 0 0 0 121.94352,-10.66798 702.26405,702.26405 0 0 0 90.67912,-24.29688 l -22.55546,-70.79766 a 629.01778,629.01778 0 0 1 -67.35172,20.43029 629.01778,629.01778 0 0 1 -122.71546,12.08452 629.01778,629.01778 0 0 1 -26.33665,-2.59376 z"
         style="fill:#ff4b85;fill-opacity:1;stroke:none;stroke-width:10.0975;stroke-linecap:round"
         id="path259-0" />
      <path
         d="m 212.20731,276.99015 -49.60026,53.54701 a 702.26405,702.26405 0 0 0 24.36634,24.36618 702.26405,702.26405 0 0 0 100.27726,70.21718 702.26405,702.26405 0 0 0 110.94458,51.73085 702.26405,702.26405 0 0 0 84.75713,22.70986 l 16.10565,-70.72852 A 629.01778,629.01778 0 0 1 397.66748,398.07535 629.01778,629.01778 0 0 1 288.9172,339.94818 629.01778,629.01778 0 0 1 212.20731,276.99015 Z"
         style="fill:#ffffff;fill-opacity:1;stroke:none;stroke-width:10.0975;stroke-linecap:round"
         id="path257-6" />
      <path
         d="m 143.97218,-544.36536 -58.687329,-44.33853 a 702.26405,702.26405 0 0 0 -49.62699,70.87235 702.26405,702.26405 0 0 0 -51.73578,110.94463 702.26405,702.26405 0 0 0 -31.67849,118.24113 702.26405,702.26405 0 0 0 -8.6923,99.28084 l 73.263497,2.37003 a 629.01778,629.01778 0 0 1 10.087843,-102.41777 629.01778,629.01778 0 0 1 35.79486,-118.00153 629.01778,629.01778 0 0 1 58.127679,-108.74504 629.01778,629.01778 0 0 1 23.14701,-28.20611 z"
         style="fill:#003a53;fill-opacity:1;stroke:none;stroke-width:10.0975;stroke-linecap:round"
         id="path254-2" />
      <path
         d="m 663.6241,-862.54224 a 702.26405,702.26405 0 0 0 -30.6943,-0.96313 702.26405,702.26405 0 0 0 -121.94737,10.66799 702.26405,702.26405 0 0 0 -118.24134,31.68391 702.26405,702.26405 0 0 0 -35.22091,16.42519 l 28.17438,65.834 a 629.01778,629.01778 0 0 1 6.51878,-3.48317 629.01778,629.01778 0 0 1 118.00219,-35.79568 629.01778,629.01778 0 0 1 122.71427,-12.0899 629.01778,629.01778 0 0 1 27.49321,0.8997 z"
         style="fill:#003a53;fill-opacity:1;stroke:none;stroke-width:10.0975;stroke-linecap:round"
         id="path241-4" />
      <path
         d="m 1096.9532,-310.46083 98.6521,-29.19134 a 609.78078,609.78078 0 0 0 -9.9167,-31.24743 609.78078,609.78078 0 0 0 -15.275,-38.73544 609.78078,609.78078 0 0 0 -17.8847,-37.60126 609.78078,609.78078 0 0 0 -20.4084,-36.29625 609.78078,609.78078 0 0 0 -22.8327,-34.81567 609.78078,609.78078 0 0 0 -25.1598,-33.17527 609.78078,609.78078 0 0 0 -27.3643,-31.38035 609.78078,609.78078 0 0 0 -24.963,-24.96276 l -71.05361,74.51522 a 506.84564,506.84564 0 0 1 21.91029,21.91091 506.84564,506.84564 0 0 1 24.72422,28.7282 506.84564,506.84564 0 0 1 22.5074,30.49623 506.84564,506.84564 0 0 1 20.1642,32.09403 506.84564,506.84564 0 0 1 17.7136,33.51094 506.84564,506.84564 0 0 1 15.1584,34.74113 506.84564,506.84564 0 0 1 12.516,35.77424 506.84564,506.84564 0 0 1 1.5114,5.63487 z"
         style="fill:#7faec2;fill-opacity:1;stroke:none;stroke-width:9.99112;stroke-linecap:round"
         id="path303-9" />
      <path
         d="m 869.18894,256.46413 50.35146,89.53949 a 609.78078,609.78078 0 0 0 41.25421,-22.04932 609.78078,609.78078 0 0 0 92.40609,-75.83593 609.78078,609.78078 0 0 0 75.836,-92.39992 609.78078,609.78078 0 0 0 5.2573,-9.83696 l -88.4426,-56.790427 a 506.84564,506.84564 0 0 1 -27.5623,43.864347 506.84564,506.84564 0 0 1 -80.25708,80.25131 506.84564,506.84564 0 0 1 -68.84308,43.25741 z"
         style="fill:#003a53;fill-opacity:1;stroke:none;stroke-width:9.99112;stroke-linecap:round"
         id="path301-8" />
      <path
         d="m 133.87913,-167.72036 -102.811679,4.23928 a 609.78078,609.78078 0 0 0 9.25092,93.928458 609.78078,609.78078 0 0 0 34.69824,114.39048 609.78078,609.78078 0 0 0 56.348839,105.426782 609.78078,609.78078 0 0 0 75.8361,92.39995 609.78078,609.78078 0 0 0 65.65847,53.88239 l 61.3225,-81.37498 a 506.84564,506.84564 0 0 1 -11.81294,-7.4191 506.84564,506.84564 0 0 1 -80.25639,-80.25131 506.84564,506.84564 0 0 1 -60.38591,-96.100952 506.84564,506.84564 0 0 1 -37.48409,-107.13133 506.84564,506.84564 0 0 1 -10.36406,-91.989668 z"
         style="fill:#ef64ff;fill-opacity:1;stroke:none;stroke-width:9.99112;stroke-linecap:round"
         id="path298-0" />
      <path
         d="m 416.98459,-729.88912 a 609.78078,609.78078 0 0 0 -17.41042,5.28325 609.78078,609.78078 0 0 0 -105.42132,56.34852 609.78078,609.78078 0 0 0 -67.03237,55.00627 l 68.84829,76.68824 a 506.84564,506.84564 0 0 1 20.94668,-20.94693 506.84564,506.84564 0 0 1 96.10119,-60.38563 506.84564,506.84564 0 0 1 41.04192,-14.36389 z"
         style="fill:#003a53;fill-opacity:1;stroke:none;stroke-width:9.99112;stroke-linecap:round"
         id="path289-4" />
      <path
         style="fill:none;stroke:#003a53;stroke-width:13.0375;stroke-linecap:butt;stroke-linejoin:miter;stroke-dasharray:none;stroke-opacity:0.8"
         d="M 1179.6623,82.015802 C 747.80648,-68.669311 434.87565,-358.09943 106.30805,-629.28667 407.19524,-295.8172 717.99524,26.838542 923.66581,464.1807"
         id="path307-1"
         sodipodi:nodetypes="ccc" />
      <path
         style="fill:none;stroke:#003a53;stroke-width:13.0375;stroke-linecap:butt;stroke-linejoin:miter;stroke-dasharray:none;stroke-opacity:0.8"
         d="M 1236.347,-75.238766 C 869.40128,-191.07488 707.20411,-462.23697 598.1856,-773.7414"
         id="path308-1"
         sodipodi:nodetypes="cc" />
      <circle
         style="fill:#ffffff;fill-opacity:1;stroke-width:0.3;stroke-dasharray:0.899999, 0.3"
         id="path1"
         cx="191.11055"
         cy="117.88802"
         r="15.592443" />
    </g>
  </g>
</svg>
