<?xml version="1.0" encoding="UTF-8" standalone="no"?>
<!-- Created with Inkscape (http://www.inkscape.org/) -->

<svg
   width="400mm"
   height="400mm"
   viewBox="0 0 400 400"
   version="1.1"
   id="svg1"
   inkscape:version="1.3.2 (091e20e, 2023-11-25, custom)"
   sodipodi:docname="card-coplsvg.svg"
   xmlns:inkscape="http://www.inkscape.org/namespaces/inkscape"
   xmlns:sodipodi="http://sodipodi.sourceforge.net/DTD/sodipodi-0.dtd"
   xmlns="http://www.w3.org/2000/svg"
   xmlns:svg="http://www.w3.org/2000/svg">
  <sodipodi:namedview
     id="namedview1"
     pagecolor="#ffffff"
     bordercolor="#666666"
     borderopacity="1.0"
     inkscape:showpageshadow="2"
     inkscape:pageopacity="0.0"
     inkscape:pagecheckerboard="0"
     inkscape:deskcolor="#d1d1d1"
     inkscape:document-units="mm"
     inkscape:zoom="0.19197882"
     inkscape:cx="1106.893"
     inkscape:cy="911.55891"
     inkscape:window-width="1920"
     inkscape:window-height="1051"
     inkscape:window-x="-9"
     inkscape:window-y="-9"
     inkscape:window-maximized="1"
     inkscape:current-layer="layer1" />
  <defs
     id="defs1" />
  <g
     inkscape:label="Layer 1"
     inkscape:groupmode="layer"
     id="layer1">
    <path
       d="m 355.87194,180.26328 12.67709,-1.3265 a 168.79271,168.79271 0 0 0 -0.25289,-2.78402 168.79271,168.79271 0 0 0 -1.53411,-10.07974 168.79271,168.79271 0 0 0 -2.14036,-9.96842 168.79271,168.79271 0 0 0 -2.73769,-9.82233 168.79271,168.79271 0 0 0 -3.32556,-9.63796 168.79271,168.79271 0 0 0 -3.26163,-7.87431 l -11.69857,5.12624 a 156.05371,156.05371 0 0 1 2.23101,5.15524 156.05371,156.05371 0 0 1 3.32086,9.224 156.05371,156.05371 0 0 1 2.73545,9.41417 156.05371,156.05371 0 0 1 2.13815,9.56727 156.05371,156.05371 0 0 1 1.53409,9.68318 156.05371,156.05371 0 0 1 0.31416,3.32318 z"
       style="fill:#ffffff;fill-opacity:1;stroke:none;stroke-width:2.24381;stroke-linecap:round"
       id="path197-9" />
    <path
       d="m 212.78317,351.49824 0.9846,12.6527 a 168.79271,168.79271 0 0 0 16.2773,-1.4239 168.79271,168.79271 0 0 0 28.41995,-7.61458 168.79271,168.79271 0 0 0 26.66548,-12.43473 168.79271,168.79271 0 0 0 24.10196,-16.87571 168.79271,168.79271 0 0 0 20.42972,-20.43078 l -9.73079,-8.2164 a 156.05371,156.05371 0 0 1 -18.88754,18.88746 156.05371,156.05371 0 0 1 -22.28264,15.60256 156.05371,156.05371 0 0 1 -24.65368,11.49669 156.05371,156.05371 0 0 1 -26.27487,7.04061 156.05371,156.05371 0 0 1 -15.04949,1.31608 z"
       style="fill:#ffffff;fill-opacity:1;stroke:none;stroke-width:2.24381;stroke-linecap:round"
       id="path195-38" />
    <path
       d="m 62.588927,268.09602 -11.2763,5.84401 a 168.79271,168.79271 0 0 0 3.24319,6.9548 168.79271,168.79271 0 0 0 16.87576,24.10185 168.79271,168.79271 0 0 0 20.80531,20.80534 168.79271,168.79271 0 0 0 17.111123,11.98137 l 6.89681,-10.66299 a 156.05371,156.05371 0 0 1 -15.82048,-11.0781 156.05371,156.05371 0 0 1 -19.234213,-19.23414 156.05371,156.05371 0 0 1 -15.60257,-22.28258 156.05371,156.05371 0 0 1 -2.99863,-6.42956 z"
       style="fill:#ffffff;fill-opacity:1;stroke:none;stroke-width:2.24381;stroke-linecap:round"
       id="path193-19" />
    <path
       d="m 45.077967,201.04078 a 156.05371,156.05371 0 0 1 -0.39782,-4.54185 156.05371,156.05371 0 0 1 2.37125,-27.09805 156.05371,156.05371 0 0 1 7.04065,-26.276 156.05371,156.05371 0 0 1 11.49551,-24.65263 156.05371,156.05371 0 0 1 15.60257,-22.282677 156.05371,156.05371 0 0 1 19.234213,-19.23534 156.05371,156.05371 0 0 1 22.28245,-15.60257 156.05371,156.05371 0 0 1 24.65393,-11.49552 156.05371,156.05371 0 0 1 0.63072,-0.1693 l -4.30653,-11.984801 a 168.79271,168.79271 0 0 0 -0.68168,0.18313 168.79271,168.79271 0 0 0 -26.66572,12.434721 168.79271,168.79271 0 0 0 -24.100623,16.87572 168.79271,168.79271 0 0 0 -20.80531,20.80533 168.79271,168.79271 0 0 0 -16.87576,24.101937 168.79271,168.79271 0 0 0 -12.43476,26.6656 168.79271,168.79271 0 0 0 -7.61574,28.41993 168.79271,168.79271 0 0 0 -2.56376,29.31044 168.79271,168.79271 0 0 0 0.43034,4.91291 z"
       style="fill:#ffffff;fill-opacity:1;stroke:none;stroke-width:2.24381;stroke-linecap:round"
       id="path192-6" />
    <path
       d="m 222.18006,29.104179 -1.61646,12.614454 a 156.05371,156.05371 0 0 1 9.4119,1.48999 156.05371,156.05371 0 0 1 9.56719,2.13932 156.05371,156.05371 0 0 1 9.41416,2.73533 156.05371,156.05371 0 0 1 9.22412,3.32085 156.05371,156.05371 0 0 1 8.99787,3.89254 156.05371,156.05371 0 0 1 8.73477,4.45139 156.05371,156.05371 0 0 1 8.43897,4.99059 156.05371,156.05371 0 0 1 8.10733,5.51004 156.05371,156.05371 0 0 1 4.94649,3.8369 l 7.92765,-10.03917 a 168.79271,168.79271 0 0 0 -0.50196,-0.4186 168.79271,168.79271 0 0 0 -8.21303,-6.04228 168.79271,168.79271 0 0 0 -8.56194,-5.53672 168.79271,168.79271 0 0 0 -8.88079,-5.00914 168.79271,168.79271 0 0 0 -9.16712,-4.463 168.79271,168.79271 0 0 0 -9.41998,-3.9018 168.79271,168.79271 0 0 0 -9.63918,-3.326652 168.79271,168.79271 0 0 0 -9.82098,-2.73766 168.79271,168.79271 0 0 0 -9.96972,-2.139291 168.79271,168.79271 0 0 0 -8.97929,-1.367091 z"
       style="fill:#ffffff;fill-opacity:1;stroke:none;stroke-width:2.24381;stroke-linecap:round"
       id="path179-5" />
    <path
       d="m 318.77878,133.65507 14.15554,-7.31546 a 152.89166,152.89166 0 0 0 -1.78226,-3.49712 152.89166,152.89166 0 0 0 -4.88972,-8.26745 152.89166,152.89166 0 0 0 -5.39885,-7.94391 152.89166,152.89166 0 0 0 -5.88688,-7.589127 152.89166,152.89166 0 0 0 -6.35177,-7.20529 152.89166,152.89166 0 0 0 -6.79136,-6.79132 152.89166,152.89166 0 0 0 -7.20424,-6.35186 152.89166,152.89166 0 0 0 -7.59014,-5.88691 152.89166,152.89166 0 0 0 -7.94377,-5.39875 152.89166,152.89166 0 0 0 -3.64689,-2.15671 l -8.15603,13.67426 a 136.94503,136.94503 0 0 1 5.96227,3.70815 136.94503,136.94503 0 0 1 7.28408,5.219 136.94503,136.94503 0 0 1 6.92711,5.68515 136.94503,136.94503 0 0 1 6.54073,6.12577 136.94503,136.94503 0 0 1 6.1258,6.540897 136.94503,136.94503 0 0 1 5.68517,6.92705 136.94503,136.94503 0 0 1 5.22025,7.28531 136.94503,136.94503 0 0 1 4.73198,7.60997 136.94503,136.94503 0 0 1 3.00898,5.62835 z"
       style="fill:#ffffff;fill-opacity:1;stroke:none;stroke-width:2.19835;stroke-linecap:round"
       id="path263-73" />
    <path
       d="m 312.38276,275.2816 12.79894,9.03152 a 152.89166,152.89166 0 0 0 7.96016,-11.36794 152.89166,152.89166 0 0 0 11.26349,-24.15406 152.89166,152.89166 0 0 0 6.89796,-25.74258 152.89166,152.89166 0 0 0 2.32258,-26.54961 152.89166,152.89166 0 0 0 -0.0213,-0.44757 l -15.94566,0.0464 a 136.94503,136.94503 0 0 1 0.0213,0.40118 136.94503,136.94503 0 0 1 -2.63088,26.71659 136.94503,136.94503 0 0 1 -7.79324,25.69041 136.94503,136.94503 0 0 1 -12.6551,23.67515 136.94503,136.94503 0 0 1 -2.2169,2.70054 z"
       style="fill:#ffffff;fill-opacity:1;stroke:none;stroke-width:2.19835;stroke-linecap:round"
       id="path261-1" />
    <path
       d="m 195.00073,330.50387 -0.67024,15.95158 a 152.89166,152.89166 0 0 0 6.40406,0.56005 152.89166,152.89166 0 0 0 26.54863,-2.32255 152.89166,152.89166 0 0 0 19.74197,-5.28974 l -4.9106,-15.41353 a 136.94503,136.94503 0 0 1 -14.66331,4.44793 136.94503,136.94503 0 0 1 -26.71669,2.63095 136.94503,136.94503 0 0 1 -5.73382,-0.56469 z"
       style="fill:#ffffff;fill-opacity:1;stroke:none;stroke-width:2.19835;stroke-linecap:round"
       id="path259-0" />
    <path
       d="m 109.13801,294.28268 -10.798623,11.65785 a 152.89166,152.89166 0 0 0 5.304873,5.30483 152.89166,152.89166 0 0 0 21.83162,15.28715 152.89166,152.89166 0 0 0 24.15402,11.26246 152.89166,152.89166 0 0 0 18.45269,4.94422 l 3.5064,-15.39849 a 136.94503,136.94503 0 0 1 -22.07399,-6.69626 136.94503,136.94503 0 0 1 -23.67629,-12.65501 136.94503,136.94503 0 0 1 -16.7007,-13.70675 z"
       style="fill:#ffffff;fill-opacity:1;stroke:none;stroke-width:2.19835;stroke-linecap:round"
       id="path257-6" />
    <path
       d="m 94.282347,115.46326 -12.77695,-9.65311 a 152.89166,152.89166 0 0 0 -10.80442,15.42989 152.89166,152.89166 0 0 0 -11.26353,24.15406 152.89166,152.89166 0 0 0 -6.8968,25.74257 152.89166,152.89166 0 0 0 -1.89242,21.61468 l 15.95038,0.51599 a 136.94503,136.94503 0 0 1 2.19625,-22.29763 136.94503,136.94503 0 0 1 7.79299,-25.69041 136.94503,136.94503 0 0 1 12.6551,-23.67518 136.94503,136.94503 0 0 1 5.0394,-6.14086 z"
       style="fill:#ffffff;fill-opacity:1;stroke:none;stroke-width:2.19835;stroke-linecap:round"
       id="path254-2" />
    <path
       d="m 207.41708,46.192093 a 152.89166,152.89166 0 0 0 -6.68253,-0.20968 152.89166,152.89166 0 0 0 -26.54947,2.32255 152.89166,152.89166 0 0 0 -25.74262,6.89798 152.89166,152.89166 0 0 0 -7.66803,3.57597 l 6.13392,14.33289 a 136.94503,136.94503 0 0 1 1.41922,-0.75833 136.94503,136.94503 0 0 1 25.69055,-7.79317 136.94503,136.94503 0 0 1 26.71643,-2.63212 136.94503,136.94503 0 0 1 5.98561,0.19587 z"
       style="fill:#ffffff;fill-opacity:1;stroke:none;stroke-width:2.19835;stroke-linecap:round"
       id="path241-4" />
    <path
       d="m 301.75808,166.38726 21.4778,-6.35532 a 132.75689,132.75689 0 0 0 -2.15899,-6.80295 132.75689,132.75689 0 0 0 -3.32556,-8.43319 132.75689,132.75689 0 0 0 -3.89372,-8.18627 132.75689,132.75689 0 0 0 -4.44317,-7.90214 132.75689,132.75689 0 0 0 -4.97096,-7.57984 132.75689,132.75689 0 0 0 -5.4776,-7.22271 132.75689,132.75689 0 0 0 -5.95756,-6.83193 132.75689,132.75689 0 0 0 -5.43474,-5.43474 l -15.46911,16.22298 a 110.34663,110.34663 0 0 1 4.77014,4.77031 110.34663,110.34663 0 0 1 5.3827,6.25451 110.34663,110.34663 0 0 1 4.90006,6.63941 110.34663,110.34663 0 0 1 4.39,6.98727 110.34663,110.34663 0 0 1 3.85647,7.29575 110.34663,110.34663 0 0 1 3.30017,7.56358 110.34663,110.34663 0 0 1 2.72489,7.7885 110.34663,110.34663 0 0 1 0.32905,1.22678 z"
       style="fill:#ffffff;fill-opacity:1;stroke:none;stroke-width:2.17519;stroke-linecap:round"
       id="path303-9" />
    <path
       d="m 252.17111,289.81391 10.96215,19.49387 a 132.75689,132.75689 0 0 0 8.98155,-4.80042 132.75689,132.75689 0 0 0 20.11781,-16.51043 132.75689,132.75689 0 0 0 16.51044,-20.11661 132.75689,132.75689 0 0 0 1.14458,-2.14163 l -19.25506,-12.364 a 110.34663,110.34663 0 0 1 -6.00065,9.54983 110.34663,110.34663 0 0 1 -17.47282,17.47171 110.34663,110.34663 0 0 1 -14.988,9.41768 z"
       style="fill:#ffffff;fill-opacity:1;stroke:none;stroke-width:2.17519;stroke-linecap:round"
       id="path301-8" />
    <path
       d="m 92.084957,197.46365 -22.38337,0.92294 a 132.75689,132.75689 0 0 0 2.01404,20.44938 132.75689,132.75689 0 0 0 7.55424,24.90424 132.75689,132.75689 0 0 0 12.26783,22.95274 132.75689,132.75689 0 0 0 16.510493,20.11663 132.75689,132.75689 0 0 0 14.29467,11.73087 l 13.35067,-17.71635 a 110.34663,110.34663 0 0 1 -2.57182,-1.61523 110.34663,110.34663 0 0 1 -17.47282,-17.47172 110.34663,110.34663 0 0 1 -13.14679,-20.92239 110.34663,110.34663 0 0 1 -8.160753,-23.32383 110.34663,110.34663 0 0 1 -2.25639,-20.02728 z"
       style="fill:#ffffff;fill-opacity:1;stroke:none;stroke-width:2.17519;stroke-linecap:round"
       id="path298-0" />
    <path
       d="m 153.72058,75.072333 a 132.75689,132.75689 0 0 0 -3.79047,1.15023 132.75689,132.75689 0 0 0 -22.95154,12.26778 132.75689,132.75689 0 0 0 -14.59378,11.975547 l 14.98913,16.69609 a 110.34663,110.34663 0 0 1 4.56036,-4.56044 110.34663,110.34663 0 0 1 20.92243,-13.146767 110.34663,110.34663 0 0 1 8.93533,-3.1272 z"
       style="fill:#ffffff;fill-opacity:1;stroke:none;stroke-width:2.17519;stroke-linecap:round"
       id="path289-4" />
  </g>
</svg>
