<?xml version="1.0" encoding="UTF-8" standalone="no"?>
<!-- Created with Inkscape (http://www.inkscape.org/) -->

<svg
   width="1191.1931"
   height="270.17273"
   viewBox="0 0 315.16985 71.483202"
   version="1.1"
   id="svg1"
   sodipodi:docname="prisma-name-text-dark.svg"
   inkscape:version="1.3.2 (091e20e, 2023-11-25, custom)"
   xmlns:inkscape="http://www.inkscape.org/namespaces/inkscape"
   xmlns:sodipodi="http://sodipodi.sourceforge.net/DTD/sodipodi-0.dtd"
   xmlns="http://www.w3.org/2000/svg"
   xmlns:svg="http://www.w3.org/2000/svg">
  <sodipodi:namedview
     id="namedview1"
     pagecolor="#000000"
     bordercolor="#666666"
     borderopacity="1.0"
     inkscape:showpageshadow="2"
     inkscape:pageopacity="0.0"
     inkscape:pagecheckerboard="0"
     inkscape:deskcolor="#d1d1d1"
     inkscape:zoom="0.4570814"
     inkscape:cx="490.06588"
     inkscape:cy="182.68081"
     inkscape:window-width="1920"
     inkscape:window-height="1051"
     inkscape:window-x="-9"
     inkscape:window-y="-9"
     inkscape:window-maximized="1"
     inkscape:current-layer="svg1" />
  <defs
     id="defs1">
    <clipPath
       clipPathUnits="userSpaceOnUse"
       id="clipPath13">
      <path
         style="fill:none;stroke:#000000;stroke-width:0.264583px;stroke-linecap:butt;stroke-linejoin:miter;stroke-opacity:1"
         d="m 539.45404,212.77072 82.79992,22.58179 1.00365,83.80357 18.06543,23.0836 1.50545,33.62179 -73.76721,-9.53455 -40.64722,-57.2072 10.53817,-24.58908 z"
         id="path13" />
    </clipPath>
    <clipPath
       clipPathUnits="userSpaceOnUse"
       id="clipPath12">
      <rect
         style="fill:none;stroke:#000000;stroke-width:1;stroke-linecap:round"
         id="rect12"
         width="98.35627"
         height="166.60347"
         x="441.09778"
         y="212.77072"
         ry="0.37993422" />
    </clipPath>
    <clipPath
       clipPathUnits="userSpaceOnUse"
       id="clipPath14">
      <path
         style="fill:none;stroke:#000000;stroke-width:0.264583px;stroke-linecap:butt;stroke-linejoin:miter;stroke-opacity:1"
         d="m 647.84666,232.3416 1.50545,101.86901 -34.62541,-24.08727 8.53091,-40.14542 -0.50181,-50.68358 z"
         id="path15" />
    </clipPath>
    <clipPath
       clipPathUnits="userSpaceOnUse"
       id="clipPath16">
      <path
         style="fill:none;stroke:#000000;stroke-width:0.264583px;stroke-linecap:butt;stroke-linejoin:miter;stroke-opacity:1"
         d="m 764.77019,218.2907 7.02545,78.7854 -21.57814,51.18539 -107.38901,-28.10179 19.57089,-67.24357 42.1527,-32.61815 z"
         id="path17" />
    </clipPath>
    <clipPath
       clipPathUnits="userSpaceOnUse"
       id="clipPath18">
      <path
         style="fill:none;stroke:#000000;stroke-width:0.264583px;stroke-linecap:butt;stroke-linejoin:miter;stroke-opacity:1"
         d="m 777.31562,213.77435 -14.55269,46.66904 10.03636,22.5818 -11.04001,58.71268 18.56727,23.58544 90.32719,-24.58908 31.61448,-68.24721 -26.59634,-80.29084 z"
         id="path19" />
    </clipPath>
  </defs>
  <path
     id="path51"
     clip-path="url(#clipPath13)"
     style="font-size:123.472px;line-height:1.25;font-family:'Game Of Squids';-inkscape-font-specification:'Game Of Squids';letter-spacing:0px;word-spacing:0px;fill:#5e5e5e;fill-opacity:1;stroke-width:0.264583"
     d="m 593.73378,281.12186 -8.56123,-15.4342 h -15.07246 l 42.44392,77.16997 h 15.43368 l -31.00896,-55.90357 z"
     transform="matrix(0.63350368,0,0,0.63350368,-290.42652,-145.71838)" />
  <path
     id="path54"
     clip-path="url(#clipPath13)"
     style="font-size:123.472px;line-height:1.25;font-family:'Game Of Squids';-inkscape-font-specification:'Game Of Squids';letter-spacing:0px;word-spacing:0px;fill:#5e5e5e;fill-opacity:1;stroke-width:0.264583"
     d="m 604.63803,259.69061 c -0.30544,1.44201 -0.99695,2.72139 -2.1022,3.82664 -1.44693,1.44693 -3.25563,2.17041 -5.42602,2.17041 h -10.23762 l 8.56072,15.4342 h 1.6769 c 6.43081,0 11.8969,-2.251 16.39848,-6.75256 4.09261,-4.09262 6.30427,-8.99146 6.67608,-14.67869 z"
     transform="matrix(0.63350368,0,0,0.63350368,-290.42652,-145.71838)" />
  <path
     id="path49"
     clip-path="url(#clipPath13)"
     style="font-size:123.472px;line-height:1.25;font-family:'Game Of Squids';-inkscape-font-specification:'Game Of Squids';letter-spacing:0px;word-spacing:0px;fill:#5e5e5e;fill-opacity:1;stroke-width:0.264583"
     d="m 458.44489,234.81978 v 108.03785 h 15.4342 v -92.60417 h 38.58472 c 2.1704,0 3.97909,0.76401 5.42603,2.29133 1.52732,1.44694 2.29133,3.25563 2.29133,5.42603 0,2.1704 -0.76401,4.0191 -2.29133,5.54643 -1.44694,1.44693 -3.25563,2.17041 -5.42603,2.17041 h -19.29236 v 15.4342 h 19.29236 c 6.43083,0 11.89742,-2.25099 16.399,-6.75256 4.50158,-4.50158 6.75204,-9.96766 6.75204,-16.39848 0,-6.43083 -2.25046,-11.89743 -6.75204,-16.399 -4.50158,-4.50158 -9.96817,-6.75204 -16.399,-6.75204 z m 84.64599,0 v 77.16996 h 15.43368 v -61.73628 h 38.58525 c 2.1704,0 3.97909,0.76401 5.42602,2.29133 1.52733,1.44694 2.29082,3.25563 2.29082,5.42603 0,0.0742 -0.0178,0.14096 -0.0196,0.21445 h 15.44454 c 5.7e-4,-0.0726 0.009,-0.1416 0.009,-0.21445 0,-6.43083 -2.25098,-11.89743 -6.75256,-16.399 -4.50158,-4.50158 -9.96766,-6.75204 -16.39848,-6.75204 z"
     transform="matrix(0.63350368,0,0,0.63350368,-290.42652,-145.71838)" />
  <path
     id="path58"
     clip-path="url(#clipPath12)"
     style="font-size:123.472px;line-height:1.25;font-family:'Game Of Squids';-inkscape-font-specification:'Game Of Squids';letter-spacing:0px;word-spacing:0px;fill:#5e5e5e;fill-opacity:1;stroke-width:0.264583"
     d="m 535.53837,259.69061 h -15.54634 c -0.30543,1.44201 -0.99695,2.72139 -2.10219,3.82664 -1.44694,1.44693 -3.25563,2.17041 -5.42603,2.17041 h -19.29236 v 15.4342 h 19.29236 c 6.43083,0 11.89742,-2.25099 16.399,-6.75256 4.09262,-4.09262 6.30375,-8.99145 6.67556,-14.67869 z"
     transform="matrix(0.63350368,0,0,0.63350368,-290.42652,-145.71838)" />
  <path
     id="path56"
     clip-path="url(#clipPath12)"
     style="font-size:123.472px;line-height:1.25;font-family:'Game Of Squids';-inkscape-font-specification:'Game Of Squids';letter-spacing:0px;word-spacing:0px;fill:#5e5e5e;fill-opacity:1;stroke-width:0.264583"
     d="m 458.44489,234.81978 v 108.03785 h 15.4342 v -92.60417 h 38.58472 c 2.1704,0 3.97909,0.76401 5.42603,2.29133 1.52732,1.44694 2.29133,3.25563 2.29133,5.42603 0,0.0742 -0.0178,0.14096 -0.0196,0.21445 h 15.44402 c 5.8e-4,-0.0726 0.009,-0.1416 0.009,-0.21445 0,-6.43083 -2.25046,-11.89743 -6.75204,-16.399 -4.50158,-4.50158 -9.96817,-6.75204 -16.399,-6.75204 z m 84.64599,0 v 77.16996 h 15.43368 v -61.73628 h 38.58525 c 2.1704,0 3.97909,0.76401 5.42602,2.29133 1.52733,1.44694 2.29082,3.25563 2.29082,5.42603 0,2.1704 -0.76349,4.0191 -2.29082,5.54643 -1.44693,1.44693 -3.25562,2.17041 -5.42602,2.17041 h -27.00972 l 42.44392,77.16997 h 15.43368 l -34.24391,-61.73577 h 3.37603 c 6.43082,0 11.8969,-2.25099 16.39848,-6.75256 4.50158,-4.50158 6.75256,-9.96766 6.75256,-16.39848 0,-6.43083 -2.25098,-11.89743 -6.75256,-16.399 -4.50158,-4.50158 -9.96766,-6.75204 -16.39848,-6.75204 z"
     transform="matrix(0.63350368,0,0,0.63350368,-290.42652,-145.71838)" />
  <path
     style="font-size:123.472px;line-height:1.25;font-family:'Game Of Squids';-inkscape-font-specification:'Game Of Squids';letter-spacing:0px;word-spacing:0px;fill:#5e5e5e;fill-opacity:1;stroke-width:0.264583"
     d="m 473.87894,342.85765 h -15.434 v -108.038 h 54.019 q 9.64625,0 16.39862,6.75238 6.75238,6.75237 6.75238,16.39862 0,9.64625 -6.75238,16.39863 -6.75237,6.75237 -16.39862,6.75237 h -19.2925 v -15.434 h 19.2925 q 3.25561,0 5.42601,-2.1704 2.29099,-2.29099 2.29099,-5.5466 0,-3.2556 -2.29099,-5.42601 -2.1704,-2.29099 -5.42601,-2.29099 h -38.585 z m 84.64584,-30.868 h -15.434 v -77.17 h 54.019 q 9.64625,0 16.39862,6.75238 6.75238,6.75237 6.75238,16.39862 0,9.64625 -6.75238,16.39863 -6.75237,6.75237 -16.39862,6.75237 h -3.37619 l 34.24419,61.736 h -15.434 l -42.4435,-77.17 h 27.0095 q 3.25561,0 5.42601,-2.1704 2.29099,-2.29099 2.29099,-5.5466 0,-3.2556 -2.29099,-5.42601 -2.1704,-2.29099 -5.42601,-2.29099 h -38.585 z m 85.12816,0 h -15.434 v -77.17 h 15.434 z m 101.16504,0 h -92.604 v -15.434 h 92.604 q 3.25561,0 5.42601,-2.1704 2.29099,-2.29099 2.29099,-5.5466 0,-3.2556 -2.29099,-5.42601 -2.1704,-2.29099 -5.42601,-2.29099 h -30.868 q -9.64625,0 -16.39863,-6.75237 -6.75237,-6.75238 -6.75237,-16.39863 0,-9.64625 6.75237,-16.39862 6.75238,-6.75238 16.39863,-6.75238 h 46.302 v 15.434 h -46.302 q -3.25561,0 -5.54659,2.29099 -2.17041,2.17041 -2.17041,5.42601 0,3.25561 2.17041,5.5466 2.29098,2.1704 5.54659,2.1704 h 30.868 q 9.64625,0 16.39862,6.75238 6.75238,6.75237 6.75238,16.39862 0,9.64625 -6.75238,16.39863 -6.75237,6.75237 -16.39862,6.75237 z m 46.66374,-46.302 v 77.17 h -15.434 v -108.038 h 15.434 l 30.868,57.8775 30.868,-57.8775 h 15.434 v 77.17 h -15.434 v -46.302 l -23.151,46.302 h -15.434 z"
     id="path14"
     aria-label="prism"
     clip-path="url(#clipPath14)"
     transform="matrix(0.63350368,0,0,0.63350368,-290.42652,-145.71838)" />
  <path
     id="path65"
     clip-path="url(#clipPath16)"
     style="font-size:123.472px;line-height:1.25;font-family:'Game Of Squids';-inkscape-font-specification:'Game Of Squids';letter-spacing:0px;word-spacing:0px;fill:#5e5e5e;fill-opacity:1;stroke-width:0.264583"
     d="m 767.91643,290.02622 h -15.4714 c -0.23332,1.66361 -0.96104,3.11905 -2.2009,4.35891 -1.44693,1.44693 -3.25562,2.17041 -5.42603,2.17041 h -92.60416 v 15.4342 h 92.60416 c 6.43083,0 11.89691,-2.25098 16.39849,-6.75256 4.21918,-4.21918 6.43515,-9.29699 6.69984,-15.21096 z"
     transform="matrix(0.63350368,0,0,0.63350368,-290.42652,-145.71838)" />
  <path
     id="path67"
     clip-path="url(#clipPath16)"
     style="font-size:123.472px;line-height:1.25;font-family:'Game Of Squids';-inkscape-font-specification:'Game Of Squids';letter-spacing:0px;word-spacing:0px;fill:#5e5e5e;fill-opacity:1;stroke-width:0.264583"
     d="m 690.87566,259.69061 c 0.37181,5.68723 2.58295,10.58607 6.67556,14.67869 4.50158,4.50156 9.96818,6.75256 16.399,6.75256 h 30.86788 c 2.17041,0 3.9791,0.7635 5.42603,2.29081 1.45117,1.37481 2.20401,3.0803 2.27635,5.10822 h 15.43471 c -0.0743,-6.29101 -2.3126,-11.65468 -6.7386,-16.08067 -4.50158,-4.50158 -9.96766,-6.75256 -16.39849,-6.75256 h -30.86788 c -2.1704,0 -4.01963,-0.72348 -5.54695,-2.17041 -1.04709,-1.10526 -1.70225,-2.38461 -1.99161,-3.82664 z"
     transform="matrix(0.63350368,0,0,0.63350368,-290.42652,-145.71838)" />
  <path
     id="path63"
     clip-path="url(#clipPath16)"
     style="font-size:123.472px;line-height:1.25;font-family:'Game Of Squids';-inkscape-font-specification:'Game Of Squids';letter-spacing:0px;word-spacing:0px;fill:#5e5e5e;fill-opacity:1;stroke-width:0.264583"
     d="m 713.95022,234.81978 c -6.43083,0 -11.89742,2.25046 -16.399,6.75204 -4.50157,4.50157 -6.75204,9.96817 -6.75204,16.399 0,0.0729 0.009,0.14185 0.009,0.21445 h 15.44298 c -0.002,-0.0735 -0.0186,-0.14021 -0.0186,-0.21445 0,-2.1704 0.72347,-3.97909 2.17041,-5.42603 1.52732,-1.52732 3.37655,-2.29133 5.54695,-2.29133 h 46.30157 v -15.43368 z"
     transform="matrix(0.63350368,0,0,0.63350368,-290.42652,-145.71838)" />
  <path
     style="font-size:123.472px;line-height:1.25;font-family:'Game Of Squids';-inkscape-font-specification:'Game Of Squids';letter-spacing:0px;word-spacing:0px;fill:#5e5e5e;fill-opacity:1;stroke-width:0.264583"
     d="m 473.87894,342.85765 h -15.434 v -108.038 h 54.019 q 9.64625,0 16.39862,6.75238 6.75238,6.75237 6.75238,16.39862 0,9.64625 -6.75238,16.39863 -6.75237,6.75237 -16.39862,6.75237 h -19.2925 v -15.434 h 19.2925 q 3.25561,0 5.42601,-2.1704 2.29099,-2.29099 2.29099,-5.5466 0,-3.2556 -2.29099,-5.42601 -2.1704,-2.29099 -5.42601,-2.29099 h -38.585 z m 84.64584,-30.868 h -15.434 v -77.17 h 54.019 q 9.64625,0 16.39862,6.75238 6.75238,6.75237 6.75238,16.39862 0,9.64625 -6.75238,16.39863 -6.75237,6.75237 -16.39862,6.75237 h -3.37619 l 34.24419,61.736 h -15.434 l -42.4435,-77.17 h 27.0095 q 3.25561,0 5.42601,-2.1704 2.29099,-2.29099 2.29099,-5.5466 0,-3.2556 -2.29099,-5.42601 -2.1704,-2.29099 -5.42601,-2.29099 h -38.585 z m 85.12816,0 h -15.434 v -77.17 h 15.434 z m 101.16504,0 h -92.604 v -15.434 h 92.604 q 3.25561,0 5.42601,-2.1704 2.29099,-2.29099 2.29099,-5.5466 0,-3.2556 -2.29099,-5.42601 -2.1704,-2.29099 -5.42601,-2.29099 h -30.868 q -9.64625,0 -16.39863,-6.75237 -6.75237,-6.75238 -6.75237,-16.39863 0,-9.64625 6.75237,-16.39862 6.75238,-6.75238 16.39863,-6.75238 h 46.302 v 15.434 h -46.302 q -3.25561,0 -5.54659,2.29099 -2.17041,2.17041 -2.17041,5.42601 0,3.25561 2.17041,5.5466 2.29098,2.1704 5.54659,2.1704 h 30.868 q 9.64625,0 16.39862,6.75238 6.75238,6.75237 6.75238,16.39862 0,9.64625 -6.75238,16.39863 -6.75237,6.75237 -16.39862,6.75237 z m 46.66374,-46.302 v 77.17 h -15.434 v -108.038 h 15.434 l 30.868,57.8775 30.868,-57.8775 h 15.434 v 77.17 h -15.434 v -46.302 l -23.151,46.302 h -15.434 z"
     id="path18"
     aria-label="prism"
     clip-path="url(#clipPath18)"
     transform="matrix(0.63350368,0,0,0.63350368,-290.42652,-145.71838)" />
  <path
     style="font-size:79.1899px;line-height:0.55;font-family:'Game Of Squids';-inkscape-font-specification:'Game Of Squids';text-align:center;letter-spacing:0px;word-spacing:0px;text-anchor:middle;fill:#5e5e5e;fill-opacity:1;stroke-width:0.412449"
     d="M 265.67617,51.968374 290.42301,0 315.16986,51.968374 H 304.03378 L 290.42301,23.509503 276.81225,51.968374 Z"
     id="text283"
     aria-label="A" />
</svg>
