<?xml version="1.0" encoding="UTF-8" standalone="no"?>
<!-- Created with Inkscape (http://www.inkscape.org/) -->

<svg
   width="560"
   height="560"
   viewBox="0 0 148.16667 148.16667"
   version="1.1"
   id="svg1"
   inkscape:version="1.3.2 (091e20e, 2023-11-25, custom)"
   sodipodi:docname="favicon.svg"
   inkscape:export-filename="favicon-appletouch.png"
   inkscape:export-xdpi="30.857143"
   inkscape:export-ydpi="30.857143"
   xmlns:inkscape="http://www.inkscape.org/namespaces/inkscape"
   xmlns:sodipodi="http://sodipodi.sourceforge.net/DTD/sodipodi-0.dtd"
   xmlns="http://www.w3.org/2000/svg"
   xmlns:svg="http://www.w3.org/2000/svg">
  <sodipodi:namedview
     id="namedview1"
     pagecolor="#003a53"
     bordercolor="#666666"
     borderopacity="1.0"
     inkscape:showpageshadow="2"
     inkscape:pageopacity="0.0"
     inkscape:pagecheckerboard="0"
     inkscape:deskcolor="#d1d1d1"
     inkscape:document-units="mm"
     inkscape:zoom="0.76791526"
     inkscape:cx="396.52813"
     inkscape:cy="293.00108"
     inkscape:window-width="1920"
     inkscape:window-height="1051"
     inkscape:window-x="-9"
     inkscape:window-y="-9"
     inkscape:window-maximized="1"
     inkscape:current-layer="layer1" />
  <defs
     id="defs1" />
  <g
     inkscape:label="Layer 1"
     inkscape:groupmode="layer"
     id="layer1">
    <path
       d="m 139.9127,67.16128 5.36236,-0.5611 a 71.39857,71.39857 0 0 0 -0.10697,-1.17763 71.39857,71.39857 0 0 0 -0.64893,-4.26368 71.39857,71.39857 0 0 0 -0.90536,-4.2166 71.39857,71.39857 0 0 0 -1.15803,-4.1548 71.39857,71.39857 0 0 0 -1.4067,-4.07681 71.39857,71.39857 0 0 0 -1.37965,-3.3308 l -4.94845,2.16837 a 66.010024,66.010024 0 0 1 0.94372,2.18065 66.010024,66.010024 0 0 1 1.4047,3.90171 66.010024,66.010024 0 0 1 1.15708,3.98215 66.010024,66.010024 0 0 1 0.90443,4.04691 66.010024,66.010024 0 0 1 0.64891,4.09594 66.010024,66.010024 0 0 1 0.13289,1.40569 z"
       style="fill:#aaaaaa;fill-opacity:1;stroke:none;stroke-width:0.949123;stroke-linecap:round"
       id="path197-9" />
    <path
       d="m 79.386803,139.59291 0.41647,5.35204 a 71.39857,71.39857 0 0 0 6.88523,-0.6023 71.39857,71.39857 0 0 0 12.02151,-3.22094 71.39857,71.39857 0 0 0 11.279377,-5.25984 71.39857,71.39857 0 0 0 10.19502,-7.13835 71.39857,71.39857 0 0 0 8.64168,-8.64213 l -4.11608,-3.47549 a 66.010024,66.010024 0 0 1 -7.98934,7.98931 66.010024,66.010024 0 0 1 -9.42546,6.59981 66.010024,66.010024 0 0 1 -10.428397,4.86305 66.010024,66.010024 0 0 1 -11.11414,2.97815 66.010024,66.010024 0 0 1 -6.36587,0.55669 z"
       style="fill:#c362ff;fill-opacity:1;stroke:none;stroke-width:0.949123;stroke-linecap:round"
       id="path195-38" />
    <path
       d="m 15.855305,104.31414 -4.769821,2.47199 a 71.39857,71.39857 0 0 0 1.371863,2.94185 71.39857,71.39857 0 0 0 7.138359,10.19498 71.39857,71.39857 0 0 0 8.800561,8.80056 71.39857,71.39857 0 0 0 7.237922,5.06807 l 2.917322,-4.5104 a 66.010024,66.010024 0 0 1 -6.691987,-4.68598 66.010024,66.010024 0 0 1 -8.135983,-8.13596 66.010024,66.010024 0 0 1 -6.599827,-9.42543 66.010024,66.010024 0 0 1 -1.268409,-2.71968 z"
       style="fill:#aaaaaa;fill-opacity:1;stroke:none;stroke-width:0.949123;stroke-linecap:round"
       id="path193-19" />
    <path
       d="m 8.448249,75.95007 a 66.010024,66.010024 0 0 1 -0.16828,-1.92118 66.010024,66.010024 0 0 1 1.003034,-11.46235 66.010024,66.010024 0 0 1 2.978161,-11.11463 66.010024,66.010024 0 0 1 4.86255,-10.42794 66.010024,66.010024 0 0 1 6.599827,-9.42543 66.010024,66.010024 0 0 1 8.135983,-8.13646 66.010024,66.010024 0 0 1 9.425368,-6.59982 66.010024,66.010024 0 0 1 10.428497,-4.86255 66.010024,66.010024 0 0 1 0.266799,-0.0716 L 50.158535,6.85859 a 71.39857,71.39857 0 0 0 -0.288345,0.0775 71.39857,71.39857 0 0 0 -11.27948,5.25983 71.39857,71.39857 0 0 0 -10.194443,7.13835 71.39857,71.39857 0 0 0 -8.800561,8.80057 71.39857,71.39857 0 0 0 -7.138359,10.19498 71.39857,71.39857 0 0 0 -5.259854,11.2794 71.39857,71.39857 0 0 0 -3.221421,12.0215 71.39857,71.39857 0 0 0 -1.084468,12.39819 71.39857,71.39857 0 0 0 0.182041,2.07814 z"
       style="fill:#8067ff;fill-opacity:1;stroke:none;stroke-width:0.949123;stroke-linecap:round"
       id="path192-6" />
    <path
       d="m 83.361633,3.221716 -0.68375,5.335864 a 66.010024,66.010024 0 0 1 3.9812,0.63025 66.010024,66.010024 0 0 1 4.04687,0.90493 66.010024,66.010024 0 0 1 3.98215,1.15703 66.010024,66.010024 0 0 1 3.90176,1.4047 66.010024,66.010024 0 0 1 3.806057,1.64653 66.010024,66.010024 0 0 1 3.69477,1.88292 66.010024,66.010024 0 0 1 3.56964,2.111 66.010024,66.010024 0 0 1 3.42937,2.33072 66.010024,66.010024 0 0 1 2.09234,1.62299 l 3.35337,-4.24653 a 71.39857,71.39857 0 0 0 -0.21233,-0.17706 71.39857,71.39857 0 0 0 -3.47408,-2.55586 71.39857,71.39857 0 0 0 -3.62166,-2.342 71.39857,71.39857 0 0 0 -3.75654,-2.11884 71.39857,71.39857 0 0 0 -3.87765,-1.88784 71.39857,71.39857 0 0 0 -3.984607,-1.65044 71.39857,71.39857 0 0 0 -4.07733,-1.40717 71.39857,71.39857 0 0 0 -4.15423,-1.158009 71.39857,71.39857 0 0 0 -4.21714,-0.904923 71.39857,71.39857 0 0 0 -3.79821,-0.578262 z"
       style="fill:#cd5aff;fill-opacity:1;stroke:none;stroke-width:0.949123;stroke-linecap:round"
       id="path179-5" />
    <path
       d="m 124.22246,47.44622 5.98773,-3.0944 a 64.672493,64.672493 0 0 0 -0.75389,-1.47927 64.672493,64.672493 0 0 0 -2.06832,-3.49707 64.672493,64.672493 0 0 0 -2.2837,-3.36023 64.672493,64.672493 0 0 0 -2.49012,-3.21014 64.672493,64.672493 0 0 0 -2.68677,-3.04781 64.672493,64.672493 0 0 0 -2.87272,-2.8727 64.672493,64.672493 0 0 0 -3.04735,-2.68681 64.672493,64.672493 0 0 0 -3.2106,-2.49013 64.672493,64.672493 0 0 0 -3.36018,-2.28365 64.672493,64.672493 0 0 0 -1.54262,-0.91228 l -3.44997,5.78415 a 57.927138,57.927138 0 0 1 2.52202,1.56854 57.927138,57.927138 0 0 1 3.08114,2.20761 57.927138,57.927138 0 0 1 2.93013,2.40479 57.927138,57.927138 0 0 1 2.7667,2.59118 57.927138,57.927138 0 0 1 2.59119,2.76675 57.927138,57.927138 0 0 1 2.4048,2.9301 57.927138,57.927138 0 0 1 2.20814,3.08163 57.927138,57.927138 0 0 1 2.0016,3.21897 57.927138,57.927138 0 0 1 1.27279,2.38077 z"
       style="fill:#aaaaaa;fill-opacity:1;stroke:none;stroke-width:0.929892;stroke-linecap:round"
       id="path263-73" />
    <path
       d="m 121.51697,107.35362 5.4139,3.82028 a 64.672493,64.672493 0 0 0 3.36712,-4.80859 64.672493,64.672493 0 0 0 4.7644,-10.21706 64.672493,64.672493 0 0 0 2.9178,-10.88899 64.672493,64.672493 0 0 0 0.98244,-11.23037 64.672493,64.672493 0 0 0 -0.009,-0.18932 l -6.74494,0.0196 a 57.927138,57.927138 0 0 1 0.009,0.1697 57.927138,57.927138 0 0 1 -1.11285,11.301 57.927138,57.927138 0 0 1 -3.29651,10.86693 57.927138,57.927138 0 0 1 -5.35305,10.01448 57.927138,57.927138 0 0 1 -0.93774,1.14232 z"
       style="fill:#aaaaaa;fill-opacity:1;stroke:none;stroke-width:0.929892;stroke-linecap:round"
       id="path261-1" />
    <path
       d="m 71.864903,130.71238 -0.28351,6.74745 a 64.672493,64.672493 0 0 0 2.7089,0.2369 64.672493,64.672493 0 0 0 11.22993,-0.98243 64.672493,64.672493 0 0 0 8.35078,-2.23753 l -2.07717,-6.51986 a 57.927138,57.927138 0 0 1 -6.20252,1.88146 57.927138,57.927138 0 0 1 -11.30102,1.11287 57.927138,57.927138 0 0 1 -2.42539,-0.23886 z"
       style="fill:#ff4b85;fill-opacity:1;stroke:none;stroke-width:0.929892;stroke-linecap:round"
       id="path259-0" />
    <path
       d="m 35.545351,115.39099 -4.567752,4.93121 a 64.672493,64.672493 0 0 0 2.243917,2.24392 64.672493,64.672493 0 0 0 9.23469,6.4664 64.672493,64.672493 0 0 0 10.217032,4.76397 64.672493,64.672493 0 0 0 7.805405,2.09138 l 1.48319,-6.51349 a 57.927138,57.927138 0 0 1 -9.33719,-2.83249 57.927138,57.927138 0 0 1 -10.014963,-5.35301 57.927138,57.927138 0 0 1 -7.064329,-5.79789 z"
       style="fill:#aaaaaa;fill-opacity:1;stroke:none;stroke-width:0.929892;stroke-linecap:round"
       id="path257-6" />
    <path
       d="M 29.261488,39.75119 23.856893,35.668 a 64.672493,64.672493 0 0 0 -4.57022,6.52673 64.672493,64.672493 0 0 0 -4.764413,10.21704 64.672493,64.672493 0 0 0 -2.917322,10.889 64.672493,64.672493 0 0 0 -0.80049,9.14291 l 6.746941,0.21826 a 57.927138,57.927138 0 0 1 0.929002,-9.4318 57.927138,57.927138 0 0 1 3.296402,-10.86692 57.927138,57.927138 0 0 1 5.353058,-10.01449 57.927138,57.927138 0 0 1 2.131637,-2.59754 z"
       style="fill:#aaaaaa;fill-opacity:1;stroke:none;stroke-width:0.929892;stroke-linecap:round"
       id="path254-2" />
    <path
       d="m 77.116973,10.44983 a 64.672493,64.672493 0 0 0 -2.82668,-0.0887 64.672493,64.672493 0 0 0 -11.23032,0.98242 64.672493,64.672493 0 0 0 -10.889011,2.91782 64.672493,64.672493 0 0 0 -3.243536,1.51262 l 2.594619,6.06275 a 57.927138,57.927138 0 0 1 0.600321,-0.32077 57.927138,57.927138 0 0 1 10.866997,-3.29648 57.927138,57.927138 0 0 1 11.30093,-1.11337 57.927138,57.927138 0 0 1 2.53188,0.0828 z"
       style="fill:#aaaaaa;fill-opacity:1;stroke:none;stroke-width:0.929892;stroke-linecap:round"
       id="path241-4" />
    <path
       d="m 117.02279,61.29179 9.085,-2.68827 a 56.155577,56.155577 0 0 0 -0.91324,-2.87762 56.155577,56.155577 0 0 0 -1.4067,-3.56721 56.155577,56.155577 0 0 0 -1.64702,-3.46275 56.155577,56.155577 0 0 0 -1.87944,-3.34257 56.155577,56.155577 0 0 0 -2.1027,-3.20623 56.155577,56.155577 0 0 0 -2.317,-3.05515 56.155577,56.155577 0 0 0 -2.52002,-2.88986 56.155577,56.155577 0 0 0 -2.29887,-2.29886 l -6.54336,6.86221 a 46.676134,46.676134 0 0 1 2.01774,2.01781 46.676134,46.676134 0 0 1 2.27686,2.64562 46.676134,46.676134 0 0 1 2.0727,2.80844 46.676134,46.676134 0 0 1 1.85696,2.95559 46.676134,46.676134 0 0 1 1.63126,3.08607 46.676134,46.676134 0 0 1 1.39597,3.19936 46.676134,46.676134 0 0 1 1.15261,3.2945 46.676134,46.676134 0 0 1 0.13919,0.51892 z"
       style="fill:#aaaaaa;fill-opacity:1;stroke:none;stroke-width:0.920097;stroke-linecap:round"
       id="path303-9" />
    <path
       d="m 96.047723,113.50071 4.636927,8.24582 a 56.155577,56.155577 0 0 0 3.79916,-2.03055 56.155577,56.155577 0 0 0 8.50975,-6.98384 56.155577,56.155577 0 0 0 6.98384,-8.50924 56.155577,56.155577 0 0 0 0.48415,-0.9059 l -8.14481,-5.22991 a 46.676134,46.676134 0 0 1 -2.53824,4.03953 46.676134,46.676134 0 0 1 -7.39092,7.39046 46.676134,46.676134 0 0 1 -6.339857,3.98363 z"
       style="fill:#aaaaaa;fill-opacity:1;stroke:none;stroke-width:0.920097;stroke-linecap:round"
       id="path301-8" />
    <path
       d="m 28.332011,74.43696 -9.468078,0.39041 a 56.155577,56.155577 0 0 0 0.851932,8.64999 56.155577,56.155577 0 0 0 3.195415,10.53438 56.155577,56.155577 0 0 0 5.18924,9.70891 56.155577,56.155577 0 0 0 6.983841,8.50924 56.155577,56.155577 0 0 0 6.046583,4.96211 l 5.647286,-7.49394 a 46.676134,46.676134 0 0 1 -1.087885,-0.68323 46.676134,46.676134 0 0 1 -7.390922,-7.39046 46.676134,46.676134 0 0 1 -5.56101,-8.85008 46.676134,46.676134 0 0 1 -3.451963,-9.86588 46.676134,46.676134 0 0 1 -0.954439,-8.47145 z"
       style="fill:#ef64ff;fill-opacity:1;stroke:none;stroke-width:0.920097;stroke-linecap:round"
       id="path298-0" />
    <path
       d="m 54.403585,22.66604 a 56.155577,56.155577 0 0 0 -1.603355,0.48655 56.155577,56.155577 0 0 0 -9.708396,5.18921 56.155577,56.155577 0 0 0 -6.173101,5.06561 l 6.340337,7.06233 a 46.676134,46.676134 0 0 1 1.928999,-1.92904 46.676134,46.676134 0 0 1 8.850104,-5.56099 46.676134,46.676134 0 0 1 3.7796,-1.3228 z"
       style="fill:#aaaaaa;fill-opacity:1;stroke:none;stroke-width:0.920097;stroke-linecap:round"
       id="path289-4" />
    <path
       style="fill:none;stroke:#ababab;stroke-width:1.20064;stroke-linecap:butt;stroke-linejoin:miter;stroke-dasharray:none;stroke-opacity:1"
       d="M 103.59046,105.85518 C 81.52109,78.630256 70.458076,49.667489 64.018129,19.97477 65.968721,54.102402 56.498203,88.230044 47.178842,122.35768 56.945097,84.878565 76.119143,49.613057 99.885828,15.428163"
       id="path304-5"
       sodipodi:nodetypes="cccc" />
    <path
       style="fill:none;stroke:#ababab;stroke-width:1.20064;stroke-linecap:butt;stroke-linejoin:miter;stroke-dasharray:none;stroke-opacity:1"
       d="M 137.60583,58.705149 C 102.56275,68.642351 67.064484,77.896792 38.422407,97.435519 52.351092,77.452896 52.281388,57.470263 49.031171,37.48764"
       id="path305-4"
       sodipodi:nodetypes="ccc" />
    <path
       style="fill:none;stroke:#ababab;stroke-width:1.20064;stroke-linecap:butt;stroke-linejoin:miter;stroke-dasharray:none;stroke-opacity:1"
       d="M 25.287759,48.769959 C 47.679638,71.404833 68.121532,96.1522 80.689032,129.43016 84.129937,103.55379 94.683946,77.677411 111.33655,51.801043 70.55071,66.518298 46.770491,67.032685 19.22562,67.293181 48.638253,55.428328 78.050885,46.508435 107.46352,29.404779"
       id="path306-7"
       sodipodi:nodetypes="ccccc" />
    <path
       style="fill:none;stroke:#ababab;stroke-width:1.20064;stroke-linecap:butt;stroke-linejoin:miter;stroke-dasharray:none;stroke-opacity:1"
       d="M 124.63958,97.435519 C 84.869438,83.558713 56.051194,56.90469 25.792939,31.930673 53.502066,62.640349 82.124078,92.354167 101.06457,132.62963"
       id="path307-1"
       sodipodi:nodetypes="ccc" />
    <path
       style="fill:none;stroke:#ababab;stroke-width:1.20064;stroke-linecap:butt;stroke-linejoin:miter;stroke-dasharray:none;stroke-opacity:1"
       d="M 129.85976,82.953723 C 96.067275,72.286218 81.130308,47.314516 71.090638,18.627631"
       id="path308-1"
       sodipodi:nodetypes="cc" />
  </g>
</svg>
